<?xml version="1.0" encoding="utf-8"?>
<!-- Generator: Adobe Illustrator 24.1.0, SVG Export Plug-In . SVG Version: 6.00 Build 0)  -->
<svg version="1.1" id="Layer_1" xmlns="http://www.w3.org/2000/svg" xmlns:xlink="http://www.w3.org/1999/xlink" x="0px" y="0px"
	 viewBox="0 0 258.01 125.23" style="enable-background:new 0 0 258.01 125.23;" xml:space="preserve">
<style type="text/css">
	.st0{fill:#B6519C;}
	.st1{clip-path:url(#SVGID_2_);fill:url(#SVGID_3_);}
	.st2{clip-path:url(#SVGID_5_);fill:url(#SVGID_6_);}
	.st3{clip-path:url(#SVGID_8_);fill:url(#SVGID_9_);}
	.st4{clip-path:url(#SVGID_11_);fill:url(#SVGID_12_);}
	.st5{clip-path:url(#SVGID_14_);fill:url(#SVGID_15_);}
	.st6{fill:none;stroke:#DAE2A5;stroke-width:0.5816;stroke-miterlimit:10;}
	.st7{fill:url(#SVGID_16_);}
	.st8{fill:url(#SVGID_17_);}
	.st9{fill:#C2499A;}
	.st10{fill:url(#SVGID_18_);}
	.st11{fill:url(#SVGID_19_);}
	.st12{fill:url(#SVGID_20_);}
	.st13{fill:url(#SVGID_21_);}
	.st14{fill:url(#SVGID_22_);}
	.st15{fill:url(#SVGID_23_);}
	.st16{fill:url(#SVGID_24_);}
	.st17{fill:white;}
</style>
<g>
	<g>
		<path class="st0" d="M76.33,49.54c0-0.01,0-0.02,0-0.03C76.33,49.52,76.33,49.53,76.33,49.54"/>
	</g>
	<g>
		<defs>
			<path id="SVGID_1_" d="M72.27,49.54c0-0.01,0-0.02,0-0.03C72.27,49.52,72.27,49.53,72.27,49.54"/>
		</defs>
		<clipPath id="SVGID_2_">
			<use xlink:href="#SVGID_1_"  style="overflow:visible;"/>
		</clipPath>
		
			<linearGradient id="SVGID_3_" gradientUnits="userSpaceOnUse" x1="-1609.4888" y1="287.967" x2="-1609.2124" y2="287.967" gradientTransform="matrix(-77.5665 -134.349 134.349 -77.5665 -163445.5469 -193825.3281)">
			<stop  offset="0" style="stop-color:#001631"/>
			<stop  offset="0.0677" style="stop-color:#002A49"/>
			<stop  offset="0.1765" style="stop-color:#00446A"/>
			<stop  offset="0.2942" style="stop-color:#005A85"/>
			<stop  offset="0.4219" style="stop-color:#006B9A"/>
			<stop  offset="0.5646" style="stop-color:#0077A9"/>
			<stop  offset="0.7341" style="stop-color:#007EB1"/>
			<stop  offset="1" style="stop-color:#0080B4"/>
		</linearGradient>
		<polygon class="st1" points="72.28,49.53 72.27,49.51 72.25,49.51 72.27,49.54 		"/>
	</g>
	<path class="st0" d="M72.29,49.75l0-0.06L72.29,49.75z"/>
	<g>
		<defs>
			<path id="SVGID_4_" d="M72.29,49.75l0-0.06L72.29,49.75z"/>
		</defs>
		<clipPath id="SVGID_5_">
			<use xlink:href="#SVGID_4_"  style="overflow:visible;"/>
		</clipPath>
		
			<linearGradient id="SVGID_6_" gradientUnits="userSpaceOnUse" x1="-1609.7255" y1="288.3446" x2="-1609.4491" y2="288.3446" gradientTransform="matrix(-73.8002 -127.8257 127.8257 -73.8002 -155571.7344 -184414.0469)">
			<stop  offset="0" style="stop-color:#001631"/>
			<stop  offset="0.0677" style="stop-color:#002A49"/>
			<stop  offset="0.1765" style="stop-color:#00446A"/>
			<stop  offset="0.2942" style="stop-color:#005A85"/>
			<stop  offset="0.4219" style="stop-color:#006B9A"/>
			<stop  offset="0.5646" style="stop-color:#0077A9"/>
			<stop  offset="0.7341" style="stop-color:#007EB1"/>
			<stop  offset="1" style="stop-color:#0080B4"/>
		</linearGradient>
		<polygon class="st2" points="72.31,49.74 72.29,49.7 72.26,49.71 72.28,49.76 		"/>
	</g>
	<g>
		<defs>
			<path id="SVGID_7_" d="M72.29,49.75l0-0.06L72.29,49.75z"/>
		</defs>
		<clipPath id="SVGID_8_">
			<use xlink:href="#SVGID_7_"  style="overflow:visible;"/>
		</clipPath>
		
			<linearGradient id="SVGID_9_" gradientUnits="userSpaceOnUse" x1="-1608.421" y1="272.6759" x2="-1608.1447" y2="272.6759" gradientTransform="matrix(-66.4402 142.4816 -142.4816 -66.4402 -67935.5938 247326.5938)">
			<stop  offset="0" style="stop-color:#00547B"/>
			<stop  offset="0.0249" style="stop-color:#005D85"/>
			<stop  offset="0.104" style="stop-color:#0073A1"/>
			<stop  offset="0.1939" style="stop-color:#0086B8"/>
			<stop  offset="0.2972" style="stop-color:#0094CA"/>
			<stop  offset="0.4223" style="stop-color:#009FD6"/>
			<stop  offset="0.5916" style="stop-color:#00A4DD"/>
			<stop  offset="1" style="stop-color:#00A6DF"/>
		</linearGradient>
		<polygon class="st3" points="72.28,49.7 72.26,49.74 72.29,49.76 72.31,49.71 		"/>
	</g>
	<g>
		<defs>
			<path id="SVGID_10_" d="M50.45,20.82c0.12-0.35,0.24-0.7,0.36-1.04C50.69,20.12,50.57,20.46,50.45,20.82 M50.81,19.77
				c0.02-0.05,0.04-0.11,0.06-0.16C50.85,19.66,50.83,19.72,50.81,19.77"/>
		</defs>
		<clipPath id="SVGID_11_">
			<use xlink:href="#SVGID_10_"  style="overflow:visible;"/>
		</clipPath>
		
			<linearGradient id="SVGID_12_" gradientUnits="userSpaceOnUse" x1="-1605.6595" y1="271.7812" x2="-1605.3831" y2="271.7812" gradientTransform="matrix(-22.2735 158.4844 -158.4844 -22.2735 7360.3877 260543.1875)">
			<stop  offset="0" style="stop-color:#008CCC"/>
			<stop  offset="0.1553" style="stop-color:#0089C8"/>
			<stop  offset="0.3123" style="stop-color:#007EBC"/>
			<stop  offset="0.4701" style="stop-color:#006DA8"/>
			<stop  offset="0.6286" style="stop-color:#00548B"/>
			<stop  offset="0.7875" style="stop-color:#003567"/>
			<stop  offset="0.9447" style="stop-color:#000F3A"/>
			<stop  offset="1" style="stop-color:#000029"/>
		</linearGradient>
		<polygon class="st4" points="50.46,19.55 50.29,20.79 50.86,20.87 51.04,19.63 		"/>
	</g>
	<g>
		<defs>
			<path id="SVGID_13_" d="M50.45,20.82c0.12-0.35,0.24-0.7,0.36-1.04C50.69,20.12,50.57,20.46,50.45,20.82 M50.81,19.77
				c0.02-0.05,0.04-0.11,0.06-0.16C50.85,19.66,50.83,19.72,50.81,19.77"/>
		</defs>
		<clipPath id="SVGID_14_">
			<use xlink:href="#SVGID_13_"  style="overflow:visible;"/>
		</clipPath>
		
			<linearGradient id="SVGID_15_" gradientUnits="userSpaceOnUse" x1="-1596.8163" y1="281.3636" x2="-1596.5398" y2="281.3636" gradientTransform="matrix(167.6656 0 0 167.6656 267777.5 -47154.7891)">
			<stop  offset="0" style="stop-color:#00597D"/>
			<stop  offset="0.0902" style="stop-color:#1A7AA0"/>
			<stop  offset="0.1873" style="stop-color:#2F97BE"/>
			<stop  offset="0.29" style="stop-color:#40ADD5"/>
			<stop  offset="0.3995" style="stop-color:#4DBDE6"/>
			<stop  offset="0.5204" style="stop-color:#54C6F0"/>
			<stop  offset="0.6748" style="stop-color:#56C9F3"/>
			<stop  offset="1" style="stop-color:#56C9F3"/>
		</linearGradient>
		<rect x="50.45" y="19.61" class="st5" width="0.42" height="1.21"/>
	</g>
	<g>
		<linearGradient id="SVGID_16_" gradientUnits="userSpaceOnUse" x1="48.4973" y1="17.337" x2="42.3698" y2="60.9367">
			<stop  offset="0" style="stop-color:#008DCD"/>
			<stop  offset="0.1551" style="stop-color:#008AC9"/>
			<stop  offset="0.3116" style="stop-color:#007FBD"/>
			<stop  offset="0.4688" style="stop-color:#006EA9"/>
			<stop  offset="0.6266" style="stop-color:#00558C"/>
			<stop  offset="0.7848" style="stop-color:#003668"/>
			<stop  offset="0.9413" style="stop-color:#00103C"/>
			<stop  offset="1" style="stop-color:#000029"/>
		</linearGradient>
		<path class="st7" d="M59.08,62.66c-6.38-0.66-11.37-6.05-11.37-12.6c0-0.1,0-3.46-0.01-6.5c0-1.44,0-2.8,0-3.71
			c0-0.69,0-1.13,0-1.13c0-0.09,0.01-0.18,0.03-0.26c-0.01,0.02-0.01,0.03-0.01-0.01c0.26-2.85,0.7-5.74,1.26-8.54
			c0.04-0.23,0.1-0.45,0.14-0.68c0.05-0.23,0.1-0.45,0.15-0.68c0.53-2.47,1.17-4.85,1.91-7.1c0.06-0.18,0.12-0.35,0.18-0.52
			c0.13-0.41,0.27-0.81,0.41-1.2c0.22-0.63,0.45-1.24,0.69-1.84c-3.6,0.88-6.97,2.35-10,4.3c-7.06,4.55-12.29,11.71-14.29,20.13
			c-0.59,2.47-0.91,5.04-0.91,7.7c0,1.77,0.15,3.52,0.42,5.22c5.91,3.16,13.24,5.5,21.42,6.64C52.31,62.33,55.65,62.6,59.08,62.66z"
			/>
		<linearGradient id="SVGID_17_" gradientUnits="userSpaceOnUse" x1="66.4138" y1="82.3356" x2="45.0015" y2="45.2484">
			<stop  offset="0" style="stop-color:#001631"/>
			<stop  offset="0.0706" style="stop-color:#002B4B"/>
			<stop  offset="0.1786" style="stop-color:#00456B"/>
			<stop  offset="0.2955" style="stop-color:#005A86"/>
			<stop  offset="0.4225" style="stop-color:#006B9B"/>
			<stop  offset="0.5644" style="stop-color:#0077AA"/>
			<stop  offset="0.7334" style="stop-color:#007EB2"/>
			<stop  offset="1" style="stop-color:#0080B5"/>
		</linearGradient>
		<path class="st8" d="M73.05,49.67l0-0.06c-0.01-0.05-0.01-0.11-0.02-0.16C73.03,49.53,73.04,49.6,73.05,49.67
			c0,0.13,0.01,0.25,0.01,0.39c0,6.61-5.06,12.03-11.52,12.62c-0.38,0.03-0.76,0.05-1.15,0.05c-0.44,0-0.88-0.02-1.31-0.07
			c-3.43-0.07-6.76-0.33-9.97-0.78c-8.17-1.15-15.5-3.48-21.42-6.64c2.36,14.9,14.67,26.47,29.91,27.73
			c0.91,0.07,1.83,0.12,2.75,0.12c1.9,0,3.76-0.17,5.57-0.48c3.02-5.77,5.24-12.86,6.37-20.73c0.55-3.79,0.78-7.81,0.78-11.91
			L73.05,49.67z"/>
		<path class="st9" d="M73.03,49.46c0-0.01,0-0.02,0-0.03C73.03,49.44,73.03,49.45,73.03,49.46z"/>
		<linearGradient id="SVGID_18_" gradientUnits="userSpaceOnUse" x1="85.5492" y1="71.131" x2="64.2525" y2="34.244">
			<stop  offset="0" style="stop-color:#031A33"/>
			<stop  offset="0.0753" style="stop-color:#022F4F"/>
			<stop  offset="0.1828" style="stop-color:#02486F"/>
			<stop  offset="0.2991" style="stop-color:#015D8A"/>
			<stop  offset="0.4254" style="stop-color:#016D9F"/>
			<stop  offset="0.5666" style="stop-color:#0078AE"/>
			<stop  offset="0.7348" style="stop-color:#007FB6"/>
			<stop  offset="1" style="stop-color:#0081B9"/>
		</linearGradient>
		<path class="st10" d="M73.03,49.46c0-0.01,0-0.02,0-0.03C73.03,49.44,73.03,49.45,73.03,49.46z"/>
		<line class="st9" x1="73.04" y1="49.62" x2="73.05" y2="49.67"/>
		<linearGradient id="SVGID_19_" gradientUnits="userSpaceOnUse" x1="84.8717" y1="70.1293" x2="64.6091" y2="35.0335">
			<stop  offset="0" style="stop-color:#031A33"/>
			<stop  offset="0.0753" style="stop-color:#022F4F"/>
			<stop  offset="0.1828" style="stop-color:#02486F"/>
			<stop  offset="0.2991" style="stop-color:#015D8A"/>
			<stop  offset="0.4254" style="stop-color:#016D9F"/>
			<stop  offset="0.5666" style="stop-color:#0078AE"/>
			<stop  offset="0.7348" style="stop-color:#007FB6"/>
			<stop  offset="1" style="stop-color:#0081B9"/>
		</linearGradient>
		<line class="st11" x1="73.04" y1="49.62" x2="73.05" y2="49.67"/>
		<linearGradient id="SVGID_20_" gradientUnits="userSpaceOnUse" x1="77.7331" y1="39.5942" x2="59.4912" y2="78.714">
			<stop  offset="0" style="stop-color:#00567D"/>
			<stop  offset="0.0335" style="stop-color:#00618B"/>
			<stop  offset="0.1122" style="stop-color:#0077A7"/>
			<stop  offset="0.2014" style="stop-color:#0089BE"/>
			<stop  offset="0.304" style="stop-color:#0097D0"/>
			<stop  offset="0.4281" style="stop-color:#00A1DC"/>
			<stop  offset="0.596" style="stop-color:#00A6E3"/>
			<stop  offset="1" style="stop-color:#00A8E5"/>
		</linearGradient>
		<line class="st12" x1="73.04" y1="49.62" x2="73.05" y2="49.67"/>
		<linearGradient id="SVGID_21_" gradientUnits="userSpaceOnUse" x1="80.4668" y1="40.5569" x2="61.7588" y2="80.6764">
			<stop  offset="0" style="stop-color:#00547B"/>
			<stop  offset="0.0269" style="stop-color:#005D86"/>
			<stop  offset="0.1061" style="stop-color:#0074A2"/>
			<stop  offset="0.1959" style="stop-color:#0087B9"/>
			<stop  offset="0.2992" style="stop-color:#0095CB"/>
			<stop  offset="0.4242" style="stop-color:#009FD7"/>
			<stop  offset="0.5933" style="stop-color:#00A5DE"/>
			<stop  offset="1" style="stop-color:#00A7E0"/>
		</linearGradient>
		<path class="st13" d="M73.05,49.67l0.03,0.31c0,4.1-0.24,8.11-0.78,11.91c-1.13,7.87-3.35,14.95-6.37,20.73
			c13.77-2.34,24.63-13.17,27.01-26.92c0.32-1.84,0.5-3.74,0.5-5.67c0-0.95-0.05-1.88-0.13-2.81c-5.45-3.76-12.66-6.67-20.92-8.35
			c-3.57-0.72-7.33-1.22-11.24-1.44c6.4,0.38,11.52,5.52,11.88,11.93c0,0.01,0,0.02,0,0.03c0,0,0,0.01,0,0.01c0,0,0,0.01,0,0.01
			c0,0.02,0,0.03,0,0.04c0,0.01,0,0.02,0,0.03c0.01,0.05,0.01,0.11,0.02,0.16L73.05,49.67z"/>
		<linearGradient id="SVGID_22_" gradientUnits="userSpaceOnUse" x1="47.2921" y1="32.0743" x2="93.2995" y2="32.0743">
			<stop  offset="0" style="stop-color:#00597D"/>
			<stop  offset="0.0921" style="stop-color:#1A7BA1"/>
			<stop  offset="0.1889" style="stop-color:#3098BF"/>
			<stop  offset="0.2914" style="stop-color:#41AED6"/>
			<stop  offset="0.4006" style="stop-color:#4DBEE7"/>
			<stop  offset="0.5211" style="stop-color:#54C7F1"/>
			<stop  offset="0.6748" style="stop-color:#56CAF4"/>
		</linearGradient>
		<path class="st14" d="M51.36,20.93c-0.06,0.18-0.12,0.35-0.18,0.52c-0.74,2.26-1.38,4.63-1.91,7.1c-0.05,0.23-0.1,0.46-0.15,0.68
			c-0.05,0.23-0.1,0.45-0.14,0.68c-0.56,2.81-1,5.69-1.26,8.54c-0.01,0.04,0,0.03,0.01,0.01c0.02-0.09,0.1-0.3,0.1-0.3
			c0.1-0.22,0.25-0.41,0.45-0.54c0.21-0.16,0.49-0.25,0.78-0.25c0,0,12.04,0.03,12.09,0.04c3.91,0.23,7.67,0.72,11.24,1.44
			c8.26,1.68,15.47,4.59,20.92,8.35c-1.27-15.09-12.67-27.29-27.38-29.79c-1.81-0.31-3.66-0.48-5.57-0.48
			c-1.23,0-2.44,0.08-3.63,0.21c-1.44,0.16-2.86,0.41-4.25,0.74c-0.24,0.6-0.47,1.21-0.69,1.84C51.64,20.13,51.5,20.53,51.36,20.93z
			"/>
		<linearGradient id="SVGID_23_" gradientUnits="userSpaceOnUse" x1="51.9223" y1="17.8241" x2="45.8069" y2="61.3377">
			<stop  offset="0" style="stop-color:#008DD0"/>
			<stop  offset="0.1537" style="stop-color:#008ACC"/>
			<stop  offset="0.3088" style="stop-color:#0181C0"/>
			<stop  offset="0.4646" style="stop-color:#0372AC"/>
			<stop  offset="0.6209" style="stop-color:#065D8F"/>
			<stop  offset="0.7777" style="stop-color:#09416B"/>
			<stop  offset="0.9328" style="stop-color:#0D203F"/>
			<stop  offset="1" style="stop-color:#0F1029"/>
		</linearGradient>
		<path class="st15" d="M51.36,20.93c0.14-0.4,0.27-0.8,0.41-1.2C51.64,20.13,51.5,20.52,51.36,20.93z"/>
		<linearGradient id="SVGID_24_" gradientUnits="userSpaceOnUse" x1="47.2877" y1="20.332" x2="93.322" y2="20.332">
			<stop  offset="0" style="stop-color:#005B80"/>
			<stop  offset="0.071" style="stop-color:#08749A"/>
			<stop  offset="0.1714" style="stop-color:#1190B8"/>
			<stop  offset="0.2776" style="stop-color:#19A6CF"/>
			<stop  offset="0.3907" style="stop-color:#1EB6E0"/>
			<stop  offset="0.5155" style="stop-color:#21BFEA"/>
			<stop  offset="0.6748" style="stop-color:#22C2ED"/>
		</linearGradient>
		<path class="st16" d="M51.36,20.93c0.14-0.4,0.27-0.8,0.41-1.2C51.64,20.13,51.5,20.52,51.36,20.93z"/>
	</g>
	<g>
		<g>
			<g>
				<path class="st17" d="M120.86,38.27v-0.06c1.57-0.43,3.05-2.09,3.05-4.34c0-3.11-2.32-5.35-7.31-5.35
					c-2.12,0-4.19,0.39-5.64,0.95c-0.04,0.01-0.07,0.02-0.1,0.04c-0.09,0.05-0.15,0.14-0.16,0.25v0.08v17.6v0.07
					c0.02,0.16,0.14,0.29,0.3,0.31v0.01c1.39,0.54,3.59,0.93,5.66,0.93c5.12,0,7.77-2.14,7.77-5.66
					C124.43,40.33,122.43,38.78,120.86,38.27 M114.33,31.74c0.52-0.19,1.41-0.33,2.28-0.33c2.52,0,3.68,1.06,3.68,2.82
					c0,0.98-0.38,1.79-0.95,2.25c-0.56,0.46-1.27,0.66-2.6,0.66h-2.41V31.74z M116.63,45.88c-0.81,0-1.76-0.14-2.3-0.33v-5.71h2.46
					c1.33,0,2.01,0.22,2.65,0.63c0.79,0.49,1.22,1.32,1.22,2.41C120.67,44.9,119.32,45.88,116.63,45.88"/>
				<path class="st17" d="M127.92,27.55c-1.17,0-2.11,0.87-2.11,1.98c0,1.11,0.94,2,2.11,2c1.17,0,2.11-0.89,2.11-2
					C130.03,28.42,129.08,27.55,127.92,27.55"/>
				<path class="st17" d="M129.76,34.19L129.76,34.19c0-0.19-0.14-0.32-0.31-0.34l-0.03,0l-0.02,0h-2.94l-0.02,0
					c-0.02,0-0.03,0-0.03,0c-0.05,0.01-0.09,0.02-0.13,0.04c0,0-0.01,0.01-0.02,0.02c-0.09,0.05-0.16,0.15-0.17,0.26
					c0,0.01-0.01,0.02-0.01,0.03c0,0.01,0.01,0.02,0.01,0.03v13.87c0,0.01-0.01,0.01-0.01,0.02c0,0.01,0.01,0.02,0.01,0.03
					c0,0.03,0.01,0.05,0.02,0.07c0.01,0.01,0.01,0.03,0.01,0.04c0.02,0.02,0.04,0.04,0.05,0.06c0.01,0.01,0.01,0.03,0.03,0.04
					c0.02,0.02,0.04,0.03,0.06,0.04c0.02,0.01,0.02,0.02,0.05,0.03c0.04,0.02,0.09,0.02,0.13,0.02h2.99c0.19,0,0.34-0.14,0.34-0.33
					v-0.01v0V34.19L129.76,34.19z"/>
				<path class="st17" d="M138.01,33.53c-4.25,0-6.61,3.25-6.61,7.61c0,4.36,2.35,7.64,6.61,7.64c4.26,0,6.61-3.27,6.61-7.64
					C144.62,36.78,142.27,33.53,138.01,33.53 M138.01,45.77c-1.95,0-2.92-1.73-2.92-4.66c0-2.93,0.97-4.69,2.92-4.69
					c1.95,0,2.93,1.76,2.93,4.69C140.94,44.04,139.96,45.77,138.01,45.77"/>
				<path class="st17" d="M158.42,34.5c-0.01-0.01-0.02-0.01-0.02-0.01c-1.2-0.55-2.99-0.96-4.94-0.96c-4.58,0-7.48,2.47-7.48,7.4
					c0,4.38,2.55,6.96,6.26,6.96c0.95,0,2-0.19,2.7-0.52v0.9c0,2.03-1,3.14-3.16,3.14c-1.43,0-2.77-0.29-3.74-0.71
					c-0.04-0.02-0.06-0.03-0.09-0.05c-0.03-0.01-0.07-0.02-0.09-0.02c-0.14,0-0.25,0.07-0.31,0.19l-0.02,0.06l-0.81,2.22v0.02
					c-0.02,0.04-0.03,0.08-0.03,0.12c0,0.11,0.05,0.21,0.14,0.27c0.04,0.02,0.09,0.04,0.13,0.06c1.31,0.56,3.07,0.97,5.2,0.97
					c3.93,0,6.44-2.17,6.44-6.28V34.82c0,0,0.01-0.01,0.01-0.01c0-0.01-0.01-0.02-0.01-0.02C158.6,34.66,158.53,34.55,158.42,34.5
					 M154.95,44.69c-0.43,0.22-1.24,0.41-1.92,0.41c-2.03,0-3.36-1.44-3.36-4.31c0-3.06,1.44-4.41,3.47-4.41
					c0.76,0,1.44,0.13,1.81,0.3V44.69z"/>
				<path class="st17" d="M208.64,39.79c-1.28-0.46-2.22-0.9-2.22-2c0-0.87,0.76-1.52,2.06-1.52c0.84,0,1.91,0.34,2.6,0.68
					c0,0,0.01,0.01,0.02,0.01c0.04,0.01,0.09,0.02,0.13,0.02c0.13,0,0.24-0.08,0.3-0.18l0.02-0.05l0.82-1.82l0.03-0.08
					c0.02-0.03,0.02-0.06,0.02-0.1c0-0.04-0.01-0.08-0.03-0.12c0-0.01,0-0.02-0.01-0.03c-0.03-0.06-0.07-0.11-0.13-0.15
					c-0.03-0.01-0.05-0.02-0.07-0.03c-1.07-0.51-2.47-0.89-4.17-0.89c-3.41,0-5.36,1.73-5.36,4.31c0,2.87,2.33,3.74,4.17,4.41
					c1.3,0.46,2.25,0.92,2.25,2.01c0,0.97-0.87,1.6-2.19,1.6c-0.91,0-2.23-0.36-3.06-0.76c-0.03-0.01-0.05-0.03-0.08-0.04
					c-0.03-0.02-0.06-0.02-0.1-0.02c-0.14,0-0.25,0.08-0.31,0.2l-0.01,0.02l-0.9,2.13l-0.03,0.06c-0.01,0.03-0.02,0.06-0.02,0.1
					c0,0.14,0.08,0.25,0.2,0.31c0,0,0.01,0.01,0.02,0.01c1.1,0.5,2.75,0.9,4.4,0.9c3.9,0,5.93-1.79,5.93-4.52
					C212.92,41.3,210.57,40.49,208.64,39.79"/>
				<path class="st17" d="M180.24,33.53c-2.29,0-4.09,0.4-5.58,0.96c-0.02,0-0.03,0.01-0.05,0.02c-0.03,0.02-0.06,0.04-0.09,0.07
					c0,0,0,0.01,0,0.01c-0.03,0.03-0.05,0.06-0.06,0.09c-0.01,0.01-0.02,0.02-0.02,0.03c-0.01,0.03-0.02,0.08-0.02,0.12V48.1
					c0,0.19,0.15,0.34,0.34,0.34h3c0.19,0,0.34-0.14,0.34-0.33V48.1V48.1V36.83c0.49-0.19,1.33-0.35,2.19-0.35
					c1.68,0,2.58,0.9,2.58,2.36v9.23c0,0.01-0.01,0.03-0.01,0.04c0,0.01,0.01,0.03,0.01,0.04c0,0.03,0.01,0.05,0.03,0.08
					c0,0.01,0,0.02,0,0.03c0.02,0.03,0.04,0.05,0.06,0.08c0,0.01,0.02,0.02,0.02,0.03c0.02,0.02,0.04,0.03,0.07,0.05
					c0.02,0.01,0.03,0.02,0.04,0.02c0.05,0.02,0.09,0.03,0.13,0.03h3.02c0.19,0,0.34-0.15,0.34-0.34v-9.65
					C186.57,35.32,184.57,33.53,180.24,33.53"/>
				<path class="st17" d="M226.16,39.79c-1.27-0.46-2.22-0.9-2.22-2c0-0.87,0.76-1.52,2.06-1.52c0.84,0,1.92,0.34,2.6,0.68
					c0,0,0.02,0.01,0.02,0.01c0.04,0.01,0.08,0.02,0.12,0.02c0.14,0,0.25-0.08,0.31-0.18l0.02-0.05l0.82-1.82l0.04-0.08
					c0.01-0.03,0.02-0.06,0.02-0.1c0-0.04-0.01-0.08-0.02-0.12c0-0.01-0.01-0.02-0.02-0.03c-0.03-0.06-0.07-0.11-0.13-0.15
					c-0.02-0.01-0.04-0.02-0.06-0.03c-1.08-0.51-2.48-0.89-4.17-0.89c-3.41,0-5.37,1.73-5.37,4.31c0,2.87,2.34,3.74,4.18,4.41
					c1.3,0.46,2.25,0.92,2.25,2.01c0,0.97-0.87,1.6-2.19,1.6c-0.91,0-2.23-0.36-3.05-0.76c-0.04-0.01-0.06-0.03-0.09-0.04
					c-0.03-0.02-0.06-0.02-0.1-0.02c-0.13,0-0.25,0.08-0.3,0.2l-0.02,0.02l-0.9,2.13l-0.04,0.06c0,0.03-0.02,0.06-0.02,0.1
					c0,0.14,0.08,0.25,0.2,0.31c0.01,0,0.02,0.01,0.02,0.01c1.1,0.5,2.75,0.9,4.4,0.9c3.9,0,5.93-1.79,5.93-4.52
					C230.44,41.3,228.08,40.49,226.16,39.79"/>
				<path class="st17" d="M216.41,27.55c-1.17,0-2.12,0.87-2.12,1.98c0,1.11,0.95,2,2.12,2s2.11-0.89,2.11-2
					C218.51,28.42,217.57,27.55,216.41,27.55"/>
				<path class="st17" d="M218.25,34.19L218.25,34.19c-0.01-0.19-0.14-0.32-0.32-0.34l-0.03,0l-0.02,0h-2.94l-0.03,0l-0.03,0
					c-0.04,0.01-0.08,0.02-0.12,0.04c-0.01,0-0.01,0.01-0.02,0.02c-0.09,0.05-0.17,0.15-0.18,0.26c0,0.01,0,0.02,0,0.03
					c0,0.01,0,0.02,0,0.03v13.87c0,0.01,0,0.01,0,0.02c0,0.01,0,0.02,0,0.03c0.01,0.03,0.02,0.05,0.02,0.07c0,0.01,0,0.03,0.01,0.04
					c0.02,0.02,0.03,0.04,0.05,0.06c0.01,0.01,0.02,0.03,0.03,0.04c0.02,0.02,0.05,0.03,0.06,0.04c0.02,0.01,0.03,0.02,0.05,0.03
					c0.04,0.02,0.08,0.02,0.13,0.02h2.99c0.19,0,0.34-0.14,0.35-0.33v-0.01v0V34.19L218.25,34.19z"/>
				<path class="st17" d="M173.04,40.03c0-3.98-2.25-6.64-6.29-6.64c-4.25,0-6.77,3.14-6.77,7.61c0,4.49,2.54,7.63,7.37,7.63
					c1.93,0,3.81-0.37,5.06-0.91c0.02-0.01,0.05-0.02,0.07-0.03c0.1-0.06,0.17-0.16,0.17-0.29c0-0.05-0.01-0.09-0.02-0.13l0-0.01
					l-0.78-2.03l-0.03-0.08v-0.01c-0.05-0.12-0.17-0.21-0.31-0.21h-0.01h-0.01l-0.03,0.01c-0.02,0-0.04,0-0.06,0.01
					c0,0-0.02,0-0.03,0.01l0,0c-1.02,0.46-2.41,0.76-3.73,0.76c-2.14,0-3.72-1.06-4.04-3.2l9.08-1.23h0c0.03,0,0.04-0.01,0.04-0.01
					c0.03-0.01,0.04-0.01,0.06-0.02c0.01,0,0.02-0.01,0.03-0.01c0.02-0.01,0.04-0.02,0.06-0.05c0.01-0.01,0.02-0.01,0.03-0.02
					c0.02-0.02,0.04-0.04,0.05-0.06c0.01-0.01,0.01-0.02,0.02-0.03c0.02-0.04,0.03-0.07,0.04-0.11c0-0.02,0.02-0.04,0.02-0.06
					c0-0.01-0.01-0.02-0.01-0.03C173.03,40.64,173.04,40.33,173.04,40.03 M163.35,40.23c0.05-2.74,1.41-4.14,3.33-4.14
					c1.71,0,2.79,1.11,2.79,3.3L163.35,40.23z"/>
				<path class="st17" d="M201,40.16c0-3.98-2.25-6.63-6.29-6.63c-4.25,0-6.77,3.14-6.77,7.61c0,4.5,2.55,7.64,7.37,7.64
					c1.94,0,3.82-0.36,5.06-0.9c0.03-0.01,0.05-0.02,0.08-0.03c0.09-0.07,0.16-0.16,0.16-0.29c0-0.04-0.01-0.09-0.03-0.13v0
					l-0.77-2.03l-0.04-0.08l0-0.01c-0.05-0.12-0.17-0.21-0.31-0.21l-0.01,0h0l-0.03,0.01c-0.02,0-0.04,0.01-0.07,0.01
					c0,0-0.02,0-0.02,0.01l-0.01,0c-1.02,0.45-2.41,0.76-3.72,0.76c-2.14,0-3.72-1.06-4.03-3.2l9.07-1.23l0.01,0.01
					c0.02,0,0.03-0.01,0.05-0.01c0.01-0.01,0.03-0.01,0.04-0.02c0.02,0,0.02-0.01,0.04-0.01c0.02-0.01,0.05-0.03,0.07-0.04
					c0-0.01,0.02-0.02,0.02-0.03c0.02-0.02,0.04-0.04,0.05-0.06c0-0.01,0.02-0.02,0.02-0.03c0.02-0.03,0.03-0.07,0.04-0.1
					c0.01-0.02,0.02-0.04,0.02-0.06c0-0.01,0-0.02,0-0.03C200.99,40.77,201,40.47,201,40.16 M191.3,40.36
					c0.06-2.74,1.41-4.15,3.33-4.15c1.71,0,2.79,1.11,2.79,3.3L191.3,40.36z"/>
				<g>
					<g>
						<path class="st17" d="M160.67,72.41c-4.25,0-6.61-3.27-6.61-7.64c0-4.36,2.35-7.61,6.61-7.61c4.25,0,6.61,3.25,6.61,7.61
							C167.27,69.14,164.92,72.41,160.67,72.41 M160.67,60.06c-1.95,0-2.93,1.76-2.93,4.69c0,2.92,0.97,4.66,2.93,4.66
							c1.95,0,2.93-1.73,2.93-4.66C163.59,61.82,162.61,60.06,160.67,60.06"/>
						<path class="st17" d="M120.86,61.9v-0.05c1.57-0.43,3.06-2.08,3.06-4.33c0-3.11-2.33-5.36-7.31-5.36
							c-2.12,0-4.19,0.38-5.64,0.95c-0.04,0.01-0.07,0.03-0.1,0.04c-0.09,0.05-0.15,0.14-0.16,0.25v0.07v17.6v0.07
							c0.02,0.16,0.14,0.29,0.3,0.31v0.01c1.38,0.53,3.59,0.93,5.66,0.93c5.12,0,7.77-2.14,7.77-5.66
							C124.44,63.96,122.43,62.42,120.86,61.9 M114.33,55.38c0.52-0.19,1.41-0.32,2.28-0.32c2.52,0,3.68,1.05,3.68,2.81
							c0,0.98-0.38,1.79-0.95,2.25c-0.57,0.46-1.28,0.65-2.6,0.65h-2.41V55.38z M116.64,69.51c-0.81,0-1.76-0.13-2.3-0.33v-5.71
							h2.46c1.32,0,2.01,0.22,2.66,0.62c0.79,0.49,1.22,1.33,1.22,2.41C120.67,68.54,119.31,69.51,116.64,69.51"/>
						<path class="st17" d="M152.22,58.1c-0.01,0-0.02-0.01-0.03-0.01c-1.19-0.55-2.98-0.96-4.92-0.96c-4.58,0-7.47,2.46-7.47,7.39
							c0,4.39,2.54,6.96,6.25,6.96c0.95,0,2-0.19,2.71-0.51v0.9c0,2.03-1,3.14-3.17,3.14c-1.42,0-2.77-0.29-3.74-0.71
							c-0.03-0.02-0.06-0.03-0.09-0.05c-0.03-0.01-0.06-0.02-0.09-0.02c-0.13,0-0.25,0.08-0.3,0.19l-0.03,0.06l-0.81,2.22l0,0.02
							c-0.02,0.04-0.03,0.08-0.03,0.12c0,0.11,0.06,0.2,0.14,0.27c0.04,0.02,0.09,0.04,0.13,0.06c1.3,0.57,3.07,0.98,5.19,0.98
							c3.93,0,6.44-2.17,6.44-6.28V58.43c0,0,0.01-0.01,0.01-0.01c0-0.01-0.01-0.02-0.01-0.02C152.4,58.26,152.33,58.16,152.22,58.1
							 M148.76,68.29c-0.43,0.22-1.25,0.41-1.92,0.41c-2.03,0-3.36-1.44-3.36-4.3c0-3.06,1.44-4.42,3.47-4.42
							c0.76,0,1.43,0.13,1.82,0.3V68.29z"/>
						<path class="st17" d="M132.3,57.16c-1.93,0-3.83,0.45-5.07,0.92c-0.02,0.01-0.05,0.01-0.07,0.03
							c-0.11,0.06-0.18,0.16-0.18,0.3c0,0.05,0.01,0.08,0.02,0.12l0.01,0.03l0.57,1.54v0l0.09,0.25c0,0.01,0.01,0.03,0.02,0.05
							l0.01,0.02c0,0.01,0.01,0.02,0.02,0.04c0.05,0.1,0.16,0.17,0.29,0.17c0.04,0,0.08-0.01,0.12-0.03c0,0,0.02,0,0.02-0.01
							c1.04-0.39,2.51-0.74,3.76-0.74c1.67,0,2.73,0.57,2.73,2.09v0.76c-4.42,0.24-8.56,1.03-8.56,5.01c0,2.97,2.19,4.71,6.58,4.71
							c2.05,0,4.09-0.43,5.24-0.94c0.02-0.01,0.04-0.02,0.05-0.03c0.1-0.06,0.17-0.16,0.18-0.28v-0.02v-8.77
							C138.13,58.62,136.04,57.16,132.3,57.16 M134.63,69.48c-0.38,0.16-1.3,0.3-2.09,0.3c-1.92,0-3-0.79-3-2.17
							c0-2.19,2.38-2.44,5.09-2.57V69.48z"/>
					</g>
					<path class="st17" d="M165.45,52.21c-0.01-0.01-0.01-0.01-0.02-0.02c-0.26-0.36-0.77-0.56-1.35-0.56
						c-0.69,0-1.47,0.23-2.02,0.78c-0.02,0.02-0.05,0.05-0.06,0.07l0,0.01l-1.64,3.09c-0.01,0.02-0.02,0.04-0.03,0.05
						c-0.01,0.03-0.02,0.07-0.02,0.1c0,0.14,0.11,0.26,0.24,0.27l0.03,0l0.03,0h1.88h0.01h0.02c0.09-0.01,0.17-0.04,0.23-0.11
						c0.02-0.01,0.04-0.03,0.05-0.04l2.61-3.23l0.03-0.03c0.04-0.06,0.07-0.13,0.07-0.2C165.5,52.33,165.48,52.27,165.45,52.21"/>
				</g>
				<path class="st17" d="M171.21,27.95c0,0-0.01-0.01-0.02-0.02c-0.25-0.35-0.77-0.56-1.35-0.56c-0.68,0-1.48,0.24-2.02,0.77v0
					c-0.02,0.02-0.04,0.05-0.05,0.07l-0.01,0.01l-1.64,3.09c-0.01,0.02-0.02,0.03-0.03,0.05c-0.01,0.03-0.02,0.06-0.02,0.1
					c0,0.14,0.11,0.26,0.24,0.28c0.01,0,0.03,0,0.03,0h0.03l1.88,0l0.02,0l0.02,0c0.09,0,0.17-0.05,0.23-0.1
					c0.02-0.02,0.03-0.03,0.04-0.05l2.62-3.23l0.02-0.03c0.04-0.06,0.07-0.13,0.07-0.2C171.27,28.07,171.24,28,171.21,27.95"/>
			</g>
		</g>
	</g>
	<g>
		<g>
			<path class="st17" d="M27.59,108.13V97.36h1.28v9.67h4.05v1.1H27.59z"/>
		</g>
		<g>
			<path class="st17" d="M37.46,108.29c-2.2,0-3.3-0.94-3.3-2.45c0-2.29,2.47-2.63,4.89-2.77v-0.61c0-1.19-0.79-1.56-1.9-1.56
				c-0.74,0-1.67,0.24-2.19,0.49l-0.33-0.88c0.61-0.28,1.62-0.57,2.62-0.57c1.8,0,2.97,0.71,2.97,2.62v5.16
				C39.66,108.04,38.52,108.29,37.46,108.29z M39.05,103.94c-1.78,0.1-3.72,0.21-3.72,1.87c0,0.94,0.7,1.55,2.1,1.55
				c0.61,0,1.34-0.12,1.62-0.25V103.94z"/>
		</g>
		<g>
			<path class="st17" d="M52.81,103.92l-5.47,0.79c0.13,1.71,1.16,2.57,2.69,2.57c0.8,0,1.65-0.19,2.19-0.49l0.39,0.94
				c-0.58,0.33-1.58,0.57-2.63,0.57c-2.39,0-3.84-1.55-3.84-4.18c0-2.47,1.32-4.16,3.49-4.16c1.98,0,3.2,1.29,3.2,3.44
				C52.82,103.55,52.82,103.73,52.81,103.92z M49.61,100.9c-1.41,0-2.32,1.13-2.35,2.95l4.37-0.63
				C51.62,101.65,50.82,100.9,49.61,100.9z"/>
		</g>
		<g>
			<path class="st17" d="M58.31,108.13h-1.43l-2.93-8.02h1.35l1.93,5.7c0.19,0.55,0.34,1.2,0.34,1.2h0.03c0,0,0.15-0.65,0.34-1.2
				l1.92-5.7h1.37L58.31,108.13z"/>
		</g>
		<g>
			<path class="st17" d="M65.7,108.29c-2.22,0-3.41-1.8-3.41-4.18c0-2.38,1.19-4.16,3.41-4.16c2.22,0,3.41,1.78,3.41,4.16
				C69.11,106.49,67.92,108.29,65.7,108.29z M65.7,100.96c-1.46,0-2.17,1.29-2.17,3.14c0,1.84,0.71,3.17,2.17,3.17
				c1.46,0,2.17-1.32,2.17-3.17C67.87,102.26,67.16,100.96,65.7,100.96z"/>
			<path class="st17" d="M71.06,108.13V96.46h1.23v11.67H71.06z"/>
			<path class="st17" d="M77.61,108.29c-1.99,0-3.09-0.88-3.09-2.81v-5.37h1.25v5.38c0,1.19,0.61,1.76,1.84,1.76
				c0.73,0,1.38-0.13,1.7-0.27v-6.87h1.23v7.61C79.93,108.04,78.79,108.29,77.61,108.29z"/>
			<path class="st17" d="M85.85,108.29c-1.71,0-3.44-1.23-3.44-4.18c0-2.94,1.72-4.16,3.44-4.16c0.8,0,1.52,0.22,1.99,0.55
				l-0.43,0.91c-0.36-0.25-0.89-0.42-1.43-0.42c-1.15,0-2.29,0.86-2.29,3.11c0,2.25,1.16,3.14,2.29,3.14c0.53,0,1.07-0.18,1.43-0.43
				l0.43,0.94C87.36,108.08,86.66,108.29,85.85,108.29z"/>
			<path class="st17" d="M90.24,98.49c-0.43,0-0.79-0.34-0.79-0.76s0.36-0.77,0.79-0.77c0.43,0,0.79,0.36,0.79,0.77
				S90.67,98.49,90.24,98.49z M89.63,108.13v-8.02h1.23v8.02H89.63z"/>
			<path class="st17" d="M96.2,108.29c-2.22,0-3.41-1.8-3.41-4.18c0-2.38,1.19-4.16,3.41-4.16s3.41,1.78,3.41,4.16
				C99.61,106.49,98.42,108.29,96.2,108.29z M96.2,100.96c-1.46,0-2.17,1.29-2.17,3.14c0,1.84,0.71,3.17,2.17,3.17
				c1.46,0,2.17-1.32,2.17-3.17C98.37,102.26,97.66,100.96,96.2,100.96z M96.4,99.16h-0.92l1.1-1.93c0.21-0.22,0.51-0.34,0.76-0.34
				c0.27,0,0.49,0.13,0.55,0.34L96.4,99.16z"/>
			<path class="st17" d="M106.39,108.13v-5.41c0-1.07-0.65-1.75-1.95-1.75c-0.7,0-1.32,0.13-1.71,0.28v6.88h-1.25v-7.61
				c0.77-0.33,1.77-0.57,2.94-0.57c2.11,0,3.2,0.98,3.2,2.66v5.52H106.39z"/>
			<path class="st17" d="M117.34,108.29c-2.44,0-3.81-1.59-3.81-4.08c0-2.45,1.31-4.18,3.7-4.18c0.55,0,1.14,0.1,1.44,0.21v-3.79
				h1.23v11.27C119.43,108.01,118.39,108.29,117.34,108.29z M118.67,101.21c-0.24-0.1-0.86-0.19-1.35-0.19
				c-1.68,0-2.56,1.35-2.56,3.2c0,1.86,0.91,3.06,2.56,3.06c0.51,0,1.13-0.13,1.35-0.25V101.21z"/>
			<path class="st17" d="M128.46,103.92l-5.47,0.79c0.13,1.71,1.16,2.57,2.69,2.57c0.8,0,1.65-0.19,2.19-0.49l0.39,0.94
				c-0.58,0.33-1.58,0.57-2.63,0.57c-2.39,0-3.84-1.55-3.84-4.18c0-2.47,1.32-4.16,3.49-4.16c1.98,0,3.2,1.29,3.2,3.44
				C128.47,103.55,128.47,103.73,128.46,103.92z M125.26,100.9c-1.41,0-2.32,1.13-2.35,2.95l4.37-0.63
				C127.27,101.65,126.47,100.9,125.26,100.9z"/>
			<path class="st17" d="M134.45,108.13V96.46h1.23v11.67H134.45z"/>
			<path class="st17" d="M140.83,108.29c-2.2,0-3.3-0.94-3.3-2.45c0-2.29,2.47-2.63,4.89-2.77v-0.61c0-1.19-0.79-1.56-1.9-1.56
				c-0.74,0-1.67,0.24-2.19,0.49l-0.33-0.88c0.61-0.28,1.62-0.57,2.62-0.57c1.8,0,2.97,0.71,2.97,2.62v5.16
				C143.03,108.04,141.89,108.29,140.83,108.29z M142.42,103.94c-1.78,0.1-3.72,0.21-3.72,1.87c0,0.94,0.7,1.55,2.1,1.55
				c0.61,0,1.34-0.12,1.62-0.25V103.94z"/>
		</g>
		<g>
			<path class="st17" d="M151.72,108.29c-0.86,0-1.8-0.25-2.38-0.57l0.45-0.95c0.43,0.25,1.28,0.51,1.92,0.51
				c1.03,0,1.71-0.51,1.71-1.29c0-0.85-0.68-1.17-1.62-1.52c-1.13-0.42-2.25-0.92-2.25-2.37c0-1.25,0.97-2.16,2.66-2.16
				c0.91,0,1.7,0.24,2.23,0.57l-0.43,0.88c-0.37-0.24-1.06-0.48-1.68-0.48c-0.97,0-1.52,0.52-1.52,1.19c0,0.85,0.65,1.15,1.55,1.47
				c1.19,0.45,2.35,0.91,2.35,2.41C154.71,107.37,153.61,108.29,151.72,108.29z"/>
		</g>
		<g>
			<path class="st17" d="M159.6,108.29c-2.2,0-3.3-0.94-3.3-2.45c0-2.29,2.47-2.63,4.89-2.77v-0.61c0-1.19-0.79-1.56-1.9-1.56
				c-0.74,0-1.67,0.24-2.19,0.49l-0.33-0.88c0.61-0.28,1.62-0.57,2.62-0.57c1.8,0,2.97,0.71,2.97,2.62v5.16
				C161.8,108.04,160.66,108.29,159.6,108.29z M161.19,103.94c-1.78,0.1-3.72,0.21-3.72,1.87c0,0.94,0.7,1.55,2.1,1.55
				c0.61,0,1.34-0.12,1.62-0.25V103.94z"/>
			<path class="st17" d="M164.61,108.13V96.46h1.23v11.67H164.61z"/>
			<path class="st17" d="M171.17,108.29c-1.99,0-3.09-0.88-3.09-2.81v-5.37h1.25v5.38c0,1.19,0.61,1.76,1.84,1.76
				c0.73,0,1.38-0.13,1.7-0.27v-6.87h1.23v7.61C173.49,108.04,172.34,108.29,171.17,108.29z"/>
			<path class="st17" d="M179.78,108.29c-2.44,0-3.81-1.59-3.81-4.08c0-2.45,1.31-4.18,3.7-4.18c0.55,0,1.14,0.1,1.44,0.21v-3.79
				h1.23v11.27C181.88,108.01,180.84,108.29,179.78,108.29z M181.12,101.21c-0.24-0.1-0.86-0.19-1.35-0.19
				c-1.68,0-2.56,1.35-2.56,3.2c0,1.86,0.91,3.06,2.56,3.06c0.51,0,1.13-0.13,1.35-0.25V101.21z"/>
			<path class="st17" d="M191.47,108.29c-2.2,0-3.3-0.94-3.3-2.45c0-2.29,2.47-2.63,4.89-2.77v-0.61c0-1.19-0.79-1.56-1.9-1.56
				c-0.74,0-1.67,0.24-2.19,0.49l-0.33-0.88c0.61-0.28,1.62-0.57,2.62-0.57c1.8,0,2.97,0.71,2.97,2.62v5.16
				C193.67,108.04,192.52,108.29,191.47,108.29z M193.06,103.94c-1.78,0.1-3.72,0.21-3.72,1.87c0,0.94,0.7,1.55,2.1,1.55
				c0.61,0,1.34-0.12,1.62-0.25V103.94z"/>
			<path class="st17" d="M201.31,108.13v-5.41c0-1.07-0.65-1.75-1.95-1.75c-0.7,0-1.32,0.13-1.71,0.28v6.88h-1.25v-7.61
				c0.77-0.33,1.77-0.57,2.94-0.57c2.11,0,3.2,0.98,3.2,2.66v5.52H201.31z"/>
			<path class="st17" d="M205.4,98.49c-0.43,0-0.79-0.34-0.79-0.76s0.36-0.77,0.79-0.77c0.43,0,0.79,0.36,0.79,0.77
				S205.83,98.49,205.4,98.49z M204.79,108.13v-8.02h1.23v8.02H204.79z"/>
			<path class="st17" d="M217.69,108.13v-5.52c0-1.04-0.73-1.65-1.74-1.65c-0.74,0-1.35,0.27-1.74,0.68v6.48h-1.23v-5.71
				c0-0.91-0.76-1.46-1.87-1.46c-0.64,0-1.19,0.12-1.59,0.28v6.88h-1.25v-7.61c0.77-0.33,1.73-0.57,2.77-0.57
				c1.25,0,2.11,0.42,2.54,0.92c0.49-0.46,1.44-0.92,2.62-0.92c1.65,0,2.74,1,2.74,2.56v5.62H217.69z"/>
			<path class="st17" d="M224.01,108.29c-2.2,0-3.3-0.94-3.3-2.45c0-2.29,2.47-2.63,4.89-2.77v-0.61c0-1.19-0.79-1.56-1.9-1.56
				c-0.74,0-1.67,0.24-2.19,0.49l-0.33-0.88c0.61-0.28,1.62-0.57,2.62-0.57c1.8,0,2.97,0.71,2.97,2.62v5.16
				C226.21,108.04,225.06,108.29,224.01,108.29z M225.6,103.94c-1.78,0.1-3.72,0.21-3.72,1.87c0,0.94,0.7,1.55,2.1,1.55
				c0.61,0,1.34-0.12,1.62-0.25V103.94z"/>
			<path class="st17" d="M229.02,108.13V96.46h1.23v11.67H229.02z"/>
		</g>
	</g>
	<g>
		<path class="st0" d="M76.33,73.79c0-0.01,0-0.02,0-0.03C76.33,73.77,76.33,73.78,76.33,73.79"/>
	</g>
</g>
</svg>
